HIERARCHY
ROOT joint_0
{
	OFFSET 0.000000 0.000000 0.000000
	CHANNELS 6 Xposition Yposition Zposition Zrotation Yrotation Xrotation 
	JOINT joint_1
	{
		OFFSET 11.612000 -0.419000 106.198000
		CHANNELS 3 Zrotation Yrotation Xrotation
		JOINT joint_2
		{
			OFFSET -1.708000 -1.022000 97.564090
			CHANNELS 3 Zrotation Yrotation Xrotation
			JOINT joint_3
			{
				OFFSET -4.121000 -1.538000 97.375000
				CHANNELS 3 Zrotation Yrotation Xrotation
				JOINT joint_4
				{
					OFFSET 5.442000 -2.123000 132.795900
					CHANNELS 3 Zrotation Yrotation Xrotation
					JOINT joint_5
					{
						OFFSET 21.935000 0.195000 82.975100
						CHANNELS 3 Zrotation Yrotation Xrotation
						End Site
						{
							OFFSET 0.000000 0.000000 0.000000
						}
					}
				}
				JOINT joint_6
				{
					OFFSET 4.262000 -30.048000 73.899900
					CHANNELS 3 Zrotation Yrotation Xrotation
					JOINT joint_7
					{
						OFFSET 9.731000 -136.810010 -21.963010
						CHANNELS 3 Zrotation Yrotation Xrotation
						JOINT joint_8
						{
							OFFSET 33.360000 -35.709000 -267.597900
							CHANNELS 3 Zrotation Yrotation Xrotation
							JOINT joint_9
							{
								OFFSET 36.156000 -29.759000 -240.558040
								CHANNELS 3 Zrotation Yrotation Xrotation
								End Site
								{
									OFFSET 0.000000 0.000000 0.000000
								}
							}
						}
					}
				}
				JOINT joint_10
				{
					OFFSET 2.027000 27.734000 74.914920
					CHANNELS 3 Zrotation Yrotation Xrotation
					JOINT joint_11
					{
						OFFSET -5.183000 136.784000 -23.604980
						CHANNELS 3 Zrotation Yrotation Xrotation
						JOINT joint_12
						{
							OFFSET 29.806000 37.229000 -267.809940
							CHANNELS 3 Zrotation Yrotation Xrotation
							JOINT joint_13
							{
								OFFSET 36.890000 46.524990 -237.772030
								CHANNELS 3 Zrotation Yrotation Xrotation
								End Site
								{
									OFFSET 0.000000 0.000000 0.000000
								}
							}
						}
					}
				}
			}
		}
	}
	JOINT joint_14
	{
		OFFSET -7.290000 -102.873990 -124.314940
		CHANNELS 3 Zrotation Yrotation Xrotation
		JOINT joint_15
		{
			OFFSET -15.466000 -19.909010 -438.533020
			CHANNELS 3 Zrotation Yrotation Xrotation
			JOINT joint_16
			{
				OFFSET -26.899000 -18.922000 -464.797000
				CHANNELS 3 Zrotation Yrotation Xrotation
				JOINT joint_17
				{
					OFFSET 179.329000 -12.011000 -84.174000
					CHANNELS 3 Zrotation Yrotation Xrotation
					End Site
					{
						OFFSET 0.000000 0.000000 0.000000
					}
				}
			}
		}
	}
	JOINT joint_18
	{
		OFFSET -6.225000 101.546000 -125.479980
		CHANNELS 3 Zrotation Yrotation Xrotation
		JOINT joint_19
		{
			OFFSET -13.973000 7.996000 -438.963010
			CHANNELS 3 Zrotation Yrotation Xrotation
			JOINT joint_20
			{
				OFFSET -44.294000 5.716000 -463.813970
				CHANNELS 3 Zrotation Yrotation Xrotation
				JOINT joint_21
				{
					OFFSET 178.505000 -4.689000 -85.139000
					CHANNELS 3 Zrotation Yrotation Xrotation
					End Site
					{
						OFFSET 0.000000 0.000000 0.000000
					}
				}
			}
		}
	}
}
MOTION
Frames: 8
Frame Time: 0.016667
-3294.189941 912.466248 1120.625977 2.108129 -2.040134 -0.185213 -1.187632 9.795882 4.585759 -0.741534 -1.818866 -1.139663 -0.461602 1.648872 0.630203 -0.655420 -3.126281 2.777582 0.000000 0.000000 0.000000 -1.828712 -12.376343 -0.490816 -11.982032 -7.462191 -7.652043 -172.488920 -85.420016 -137.603448 0.000000 0.000000 0.000000 1.106923 -11.934072 1.306421 6.063879 -5.828117 7.901929 170.273416 -85.664796 154.451275 0.000000 0.000000 0.000000 -4.602102 7.264551 2.083507 -4.091089 2.902353 -0.552424 -3.628024 -7.532615 -2.170054 0.000000 0.000000 0.000000 3.640957 -11.113363 2.864022 4.139190 27.420293 2.458987 5.992761 -7.154939 2.471543 0.000000 0.000000 0.000000 
-3293.885010 914.599731 1121.107056 1.854961 -2.245553 -0.194833 -1.120002 9.894831 4.445991 -0.767042 -1.845842 -1.100332 -0.514665 1.675899 0.598169 -0.692331 -2.894952 2.877728 0.000000 0.000000 0.000000 -1.976774 -12.665339 -0.326663 -11.438356 -7.561370 -7.253256 -172.172425 -86.692834 -138.302963 0.000000 0.000000 0.000000 0.980036 -11.824473 1.339555 5.694496 -5.901896 7.670812 170.075409 -86.387366 155.731644 0.000000 0.000000 0.000000 -4.512387 7.403626 2.022563 -4.033558 3.005781 -0.720588 -3.584912 -7.368335 -2.139883 0.000000 0.000000 0.000000 3.749195 -10.620113 2.488380 4.248354 25.665274 2.508437 5.852058 -6.352853 2.451316 0.000000 0.000000 0.000000 
-3293.406006 916.929993 1121.506958 1.583662 -2.388111 -0.269219 -1.098528 9.904839 4.329012 -0.800462 -1.854997 -1.056979 -0.566236 1.683829 0.564322 -0.726478 -2.657612 2.970934 0.000000 0.000000 0.000000 -2.097824 -12.839044 -0.114378 -10.953999 -7.603200 -6.891991 -171.860959 -87.761847 -138.793233 0.000000 0.000000 0.000000 0.871715 -11.652405 1.355289 5.315651 -5.893949 7.507671 169.887851 -86.840098 157.099112 0.000000 0.000000 0.000000 -4.407244 7.486884 2.008215 -3.945725 3.104533 -0.867698 -3.514123 -7.171374 -2.094171 0.000000 0.000000 0.000000 3.928471 -10.176832 2.225480 4.411994 24.738975 2.758371 5.933986 -5.925040 2.509217 0.000000 0.000000 0.000000 
-3292.734131 919.497986 1121.853027 1.301692 -2.485062 -0.382436 -1.108045 9.836206 4.202102 -0.847931 -1.845871 -0.999633 -0.628742 1.676826 0.525763 -0.757200 -2.416874 3.054799 0.000000 0.000000 0.000000 -2.211341 -12.926113 0.131584 -10.529838 -7.597058 -6.547621 -171.561228 -88.696769 -139.034322 0.000000 0.000000 0.000000 0.769183 -11.408934 1.350505 4.915736 -5.812188 7.400953 169.698786 -87.055595 158.579004 0.000000 0.000000 0.000000 -4.287959 7.537028 2.019416 -3.836525 3.190459 -1.010585 -3.424441 -6.948455 -2.037702 0.000000 0.000000 0.000000 4.191806 -9.689156 2.001466 4.651197 24.237705 3.190088 6.194153 -5.722989 2.635231 0.000000 0.000000 0.000000 
-3292.041504 922.260071 1122.331055 1.016825 -2.550157 -0.475390 -1.123290 9.766478 4.036970 -0.897458 -1.835826 -0.943042 -0.692085 1.670129 0.491176 -0.790877 -2.208788 3.151844 0.000000 0.000000 0.000000 -2.316104 -12.910648 0.360110 -10.112501 -7.536729 -6.244116 -171.258596 -89.351849 -139.372183 0.000000 0.000000 0.000000 0.683995 -11.170230 1.340243 4.609099 -5.721190 7.355142 169.557113 -87.240402 159.752952 0.000000 0.000000 0.000000 -4.162929 7.512406 1.989826 -3.729845 3.341468 -1.139120 -3.335271 -6.717899 -1.980894 0.000000 0.000000 0.000000 4.466289 -9.177040 1.756200 4.899030 23.746240 3.616409 6.463701 -5.606061 2.763188 0.000000 0.000000 0.000000 
-3291.444580 925.229370 1123.090942 0.730076 -2.593952 -0.498878 -1.125847 9.749760 3.799492 -0.941138 -1.838290 -0.897406 -0.749998 1.677784 0.466392 -0.836214 -2.059789 3.292006 0.000000 0.000000 0.000000 -2.412093 -12.773135 0.548736 -9.669661 -7.417254 -6.022825 -170.943154 -89.560934 -140.073895 0.000000 0.000000 0.000000 0.631424 -10.994762 1.332766 4.493220 -5.670491 7.394893 169.506944 -87.557401 160.274988 0.000000 0.000000 0.000000 -4.038407 7.368481 1.862283 -3.645292 3.642833 -1.247753 -3.261991 -6.505786 -1.932687 0.000000 0.000000 0.000000 4.704425 -8.627732 1.432043 5.110248 22.965226 3.914541 6.628077 -5.516662 2.847716 0.000000 0.000000 0.000000 
-3290.875977 928.420776 1124.062012 0.437146 -2.611580 -0.475486 -1.124843 9.756744 3.498236 -0.983983 -1.848010 -0.856565 -0.807022 1.694754 0.449392 -0.889795 -1.954286 3.463388 0.000000 0.000000 0.000000 -2.498304 -12.521867 0.715466 -9.222627 -7.242240 -5.875297 -170.621795 -89.392643 -140.994237 0.000000 0.000000 0.000000 0.608307 -10.849069 1.325181 4.518729 -5.634436 7.514691 169.527568 -87.933836 160.312401 0.000000 0.000000 0.000000 -3.910725 7.121445 1.663201 -3.572432 4.064666 -1.342231 -3.196462 -6.301795 -1.888537 0.000000 0.000000 0.000000 4.933339 -8.028053 1.050223 5.309480 22.035081 4.154775 6.750274 -5.495883 2.913659 0.000000 0.000000 0.000000 
-3290.330322 931.651672 1125.124023 0.148129 -2.590991 -0.456059 -1.126407 9.773933 3.209990 -1.023652 -1.858608 -0.818653 -0.858964 1.710172 0.431593 -0.937867 -1.886087 3.619423 0.000000 0.000000 0.000000 -2.560412 -12.212097 0.838772 -8.781246 -7.030727 -5.712764 -170.300662 -89.130087 -141.914554 0.000000 0.000000 0.000000 0.583210 -10.690406 1.341419 4.584487 -5.579036 7.614989 169.570118 -88.263932 160.184818 0.000000 0.000000 0.000000 -3.775986 6.842439 1.454898 -3.490037 4.454758 -1.412039 -3.124021 -6.030894 -1.836753 0.000000 0.000000 0.000000 5.138395 -7.516619 0.701071 5.486505 21.172548 4.335516 6.849718 -5.420318 2.970366 0.000000 0.000000 0.000000 
